<?xml version="1.0" standalone="no"?><!DOCTYPE svg PUBLIC "-//W3C//DTD SVG 1.1//EN" "http://www.w3.org/Graphics/SVG/1.1/DTD/svg11.dtd"><svg t="1697283030073" class="icon" viewBox="0 0 1024 1024" version="1.1" xmlns="http://www.w3.org/2000/svg" p-id="4068" xmlns:xlink="http://www.w3.org/1999/xlink" width="200" height="200"><path d="M522.24 211.456c5.12-4.608 11.264-6.656 17.92-6.656 140.288 4.096 257.536 105.984 279.04 242.176v2.56c0.512 6.656-1.536 12.8-6.144 17.92-4.096 5.12-10.24 7.68-16.896 8.192l-236.032 15.36c-7.68 0.512-15.36-2.048-21.504-7.168-5.632-5.12-9.216-12.288-9.216-19.968l-15.872-231.936v-3.584c0.512-6.656 3.584-12.8 8.704-16.896z" fill="#7A7AF9" p-id="4069"></path><path d="M505.856 551.936l204.288-13.312 1.536 0.512c8.704 0 16.896 3.584 23.04 9.728 6.144 6.144 9.216 14.336 9.216 23.04-8.192 117.248-94.208 215.552-211.456 240.64-117.248 25.088-237.056-28.16-294.912-131.584-16.896-29.696-27.648-62.464-31.232-96.256-1.536-10.24-2.048-19.968-2.048-30.208 1.024-124.416 89.6-232.448 214.016-258.56 14.848-3.072 30.208 4.608 36.864 18.432 1.536 2.56 3.072 5.12 4.096 7.68 2.56 35.84 4.608 71.68 7.168 107.008 2.048 28.16 3.584 55.808 5.632 83.968 0 6.656 1.024 13.312 3.072 19.456 4.608 12.288 17.408 19.968 30.72 19.456z" fill="#CCDAFF" p-id="4070"></path></svg>